<?xml version="1.0"?>
<svg xmlns="http://www.w3.org/2000/svg" xmlns:xlink="http://www.w3.org/1999/xlink" id="lp-icons" data-name="lp-icons" viewBox="0 0 600 240"><defs><symbol id="lp-divider" data-name="lp-divider" viewBox="0 0 7 15"><g xmlns="http://www.w3.org/2000/svg" id="done" opacity=".802"><g id="Start-nivå-1" transform="translate(-112 -148)"><path id="Startsida/Råd&amp;stöd" d="M113.88 162.56l4.272-13.92h-.96l-4.272 13.92z"/></g></g></symbol><symbol id="lp-search" data-name="lp-search" viewBox="0 0 16 16"><g xmlns="http://www.w3.org/2000/svg"><g id="Start2" transform="translate(-1617 -13)"><g id="Group-2" transform="translate(1510 11)"><path d="M113.235 2A6.23 6.23 0 0 0 107 8.235a6.23 6.23 0 0 0 6.235 6.235c1.23 0 2.37-.361 3.335-.974L121.074 18l1.56-1.559-4.448-4.435a6.191 6.191 0 0 0 1.284-3.771A6.23 6.23 0 0 0 113.235 2zm0 1.467a4.759 4.759 0 0 1 4.768 4.768 4.759 4.759 0 0 1-4.768 4.768 4.759 4.759 0 0 1-4.768-4.768 4.759 4.759 0 0 1 4.768-4.768z" id="Shape"/></g></g></g></symbol><symbol id="lp-frageladan" data-name="lp-frageladan" viewBox="0 0 16 17"><g xmlns="http://www.w3.org/2000/svg" transform="translate(-1328 -14)"><path d="M1.846 0A1.853 1.853 0 0 0 0 1.846v9.846c0 1.015.832 1.846 1.846 1.846h5.966l4.496 2.996v-2.996h1.846A1.853 1.853 0 0 0 16 11.692V1.846A1.853 1.853 0 0 0 14.154 0H1.846zm0 1.23h12.308c.346 0 .615.27.615.616v9.846a.608.608 0 0 1-.615.616h-3.077v1.928l-2.89-1.928h-6.34a.608.608 0 0 1-.616-.616V1.846c0-.346.269-.615.615-.615zm1.846 2.462v1.231h8.616v-1.23H3.692zm0 2.462v1.23h8.616v-1.23H3.692zm0 2.461v1.231h4.923v-1.23H3.692z" transform="translate(1328 14)" id="icons8-comments"/></g></symbol><symbol id="lp-link" data-name="lp-link" viewBox="0 0 20 20"><g xmlns="http://www.w3.org/2000/svg"><g id="Innehållsida" transform="translate(-462 -1551)"><path d="M13.363 0a.403.403 0 0 0 .075.8h5.187l-8.35 8.362a.402.402 0 0 0 .16.702c.15.034.306-.02.402-.139l8.363-8.35v5.188a.402.402 0 0 0 .198.351.404.404 0 0 0 .404 0A.402.402 0 0 0 20 6.563V0h-6.637zM.8 4a.814.814 0 0 0-.575.225A.814.814 0 0 0 0 4.8v14.4c0 .21.073.423.225.575A.814.814 0 0 0 .8 20h14.4c.21 0 .423-.073.575-.225A.814.814 0 0 0 16 19.2v-12a.402.402 0 0 0-.198-.352.404.404 0 0 0-.404 0 .402.402 0 0 0-.198.352v12H.8V4.8h12a.402.402 0 0 0 .352-.198.404.404 0 0 0 0-.404A.402.402 0 0 0 12.8 4H.8z" transform="translate(462 1551)" id="icons8-external-link-(1)"/></g></g></symbol><symbol id="lp-calendar" data-name="lp-calendar" viewBox="0 0 16 16"><g xmlns="http://www.w3.org/2000/svg" transform="translate(-1190 -13)"><path d="M2.462 0v1.23h-.616A1.853 1.853 0 0 0 0 3.078v11.077C0 15.168.832 16 1.846 16h12.308A1.853 1.853 0 0 0 16 14.154V3.077a1.853 1.853 0 0 0-1.846-1.846h-.616V0h-1.23v1.23H3.692V0h-1.23zm-.616 2.462h.616v1.23h1.23v-1.23h8.616v1.23h1.23v-1.23h.616c.346 0 .615.269.615.615v1.846H1.231V3.077c0-.346.269-.615.615-.615zm-.615 3.692h13.538v8a.607.607 0 0 1-.615.615H1.846a.608.608 0 0 1-.615-.615v-8zm3.692 1.23v1.231h1.23v-1.23h-1.23zm2.462 0v1.231h1.23v-1.23h-1.23zm2.461 0v1.231h1.23v-1.23h-1.23zm2.462 0v1.231h1.23v-1.23h-1.23zM2.462 9.847v1.23h1.23v-1.23h-1.23zm2.461 0v1.23h1.23v-1.23h-1.23zm2.462 0v1.23h1.23v-1.23h-1.23zm2.461 0v1.23h1.23v-1.23h-1.23zm2.462 0v1.23h1.23v-1.23h-1.23zm-9.846 2.462v1.23h1.23v-1.23h-1.23zm2.461 0v1.23h1.23v-1.23h-1.23zm2.462 0v1.23h1.23v-1.23h-1.23z" transform="translate(1190 13)" id="icons8-calendar-(2)"/></g></symbol><symbol id="lp-linkedin" data-name="lp-linkedin" viewBox="0 0 16 16"><g xmlns="http://www.w3.org/2000/svg" transform="translate(-508 -3250)"><g id="sidfot" transform="translate(-70 2772)"><path d="M2.163 0A2.173 2.173 0 0 0 0 2.163v11.678C0 15.024.976 16 2.163 16h11.678A2.17 2.17 0 0 0 16 13.841V2.163A2.172 2.172 0 0 0 13.841 0H2.163zm0 1.23h11.678a.92.92 0 0 1 .928.933v11.678a.92.92 0 0 1-.928.928H2.163a.92.92 0 0 1-.932-.928V2.163a.92.92 0 0 1 .932-.932zm1.53 1.232c-.679 0-1.231.552-1.231 1.23 0 .678.552 1.231 1.23 1.231.678 0 1.231-.553 1.231-1.23 0-.679-.553-1.231-1.23-1.231zM2.461 6.154v7.384h2.461V6.154h-2.46zm3.692 0v7.384h2.461V10.24c0-1.024.097-1.942 1.327-1.942 1.212 0 1.135 1.101 1.135 2.01v3.23h2.461V9.894c0-2.115-.442-3.74-2.84-3.74-1.155 0-1.736.461-2.054 1.077h-.029V6.154h-2.46z" transform="translate(578 478)" id="icons8-linkedin"/></g></g></symbol><symbol id="lp-pdf" data-name="lp-pdf" viewBox="0 0 20 26"><g xmlns="http://www.w3.org/2000/svg" transform="translate(-462 -1429)"><path d="M0 0v26h20V7.58L12.324 0H0zm1.111 1.13h10.556v7.348h7.222V24.87H1.11V1.13zm11.667.892l5.393 5.326h-5.393V2.022zm-3.462 8.081c-.416 0-.848.24-1.037.599-.19.355-.204.737-.156 1.134.074.627.354 1.336.716 2.063-.18.618-.267 1.157-.538 1.817-.345.84-.768 1.508-1.174 2.208-.53.251-1.198.476-1.589.737-.438.294-.785.556-.99.974-.1.207-.151.503-.051.77s.308.442.523.554c.455.245.98.093 1.36-.167.38-.26.719-.643 1.06-1.109.17-.236.307-.618.477-.894.544-.245.93-.499 1.55-.715.835-.294 1.579-.418 2.36-.59.653.448 1.348.797 2.107.797.43 0 .762-.02 1.086-.198.325-.18.52-.61.52-.939 0-.267-.115-.552-.297-.735a1.374 1.374 0 0 0-.625-.342c-.443-.122-.946-.113-1.526-.053-.306.033-.716.198-1.056.262-.046-.035-.09-.05-.135-.09-.692-.607-1.341-1.446-1.823-2.28-.028-.052-.024-.087-.052-.138.117-.446.347-.965.4-1.355.071-.541.086-1.014-.042-1.446a1.282 1.282 0 0 0-.362-.603 1.09 1.09 0 0 0-.706-.26zm-.045 1.126c.006 0 .017.005.026.007.002.004.006.002.024.057.03.104.013.398.002.658-.013-.066-.09-.19-.096-.25-.032-.262.01-.43.026-.458.005-.012.011-.014.018-.014zm.336 3.966c.343.5.723.969 1.148 1.4-.568.154-1.078.21-1.651.41-.122.042-.191.102-.31.146.169-.36.38-.627.531-.998.139-.338.163-.623.282-.958z" transform="translate(462 1429)" id="icons8-pdf-(1)"/></g></symbol><symbol id="lp-minus" data-name="lp-minus" viewBox="0 0 16 2"><g xmlns="http://www.w3.org/2000/svg"><g id="Start-nivå-2" transform="translate(-1732 -238)"><g id="umeny" transform="translate(1418 163)"><g id="icons8-plus-(2)" transform="translate(314 75)"><path id="Path" d="M7.2.2H0v1.6h16V.2H8.8z"/></g></g></g></g></symbol><symbol id="lp-plus" data-name="lp-plus" viewBox="0 0 16 16"><path xmlns="http://www.w3.org/2000/svg" d="M7.2 0v7.2H0v1.6h7.2V16h1.6V8.8H16V7.2H8.8V0z"/></symbol><symbol id="lp-instagram" data-name="lp-instagram" viewBox="0 0 16 16"><g xmlns="http://www.w3.org/2000/svg" transform="translate(-455 -478)"><path d="M4.644 0A4.654 4.654 0 0 0 0 4.644v6.717A4.653 4.653 0 0 0 4.644 16h6.717A4.653 4.653 0 0 0 16 11.356V4.644A4.654 4.654 0 0 0 11.356 0H4.644zm0 1.23h6.712a3.402 3.402 0 0 1 3.413 3.414v6.712a3.4 3.4 0 0 1-3.408 3.413H4.644a3.4 3.4 0 0 1-3.413-3.408V4.644a3.402 3.402 0 0 1 3.413-3.413zm8.28 1.232a.614.614 0 0 0-.616.615c0 .341.274.615.615.615a.614.614 0 0 0 .615-.615.614.614 0 0 0-.615-.615zM8 3.692A4.32 4.32 0 0 0 3.692 8 4.32 4.32 0 0 0 8 12.308 4.32 4.32 0 0 0 12.308 8 4.32 4.32 0 0 0 8 3.692zm0 1.231A3.068 3.068 0 0 1 11.077 8 3.068 3.068 0 0 1 8 11.077 3.068 3.068 0 0 1 4.923 8 3.068 3.068 0 0 1 8 4.923z" transform="translate(455 478)" id="icons8-instagram"/></g></symbol><symbol id="lp-facebook" data-name="lp-facebook" viewBox="0 0 16 16"><g xmlns="http://www.w3.org/2000/svg" transform="translate(-334 -480)"><path d="M8 0C3.589 0 0 3.589 0 8s3.589 8 8 8 8-3.589 8-8-3.589-8-8-8zm0 1.23A6.76 6.76 0 0 1 14.77 8 6.755 6.755 0 0 1 9 14.688V9.957h1.911l.3-1.94H9V6.954c0-.806.262-1.521 1.017-1.521h1.211V3.738c-.213-.028-.662-.091-1.514-.091-1.777 0-2.82.939-2.82 3.077v1.29H5.067v1.943h1.83v4.714A6.754 6.754 0 0 1 1.23 8 6.76 6.76 0 0 1 8 1.23z" transform="translate(334 480)" id="icons8-facebook"/></g></symbol><symbol id="lp-tag" data-name="lp-tag" viewBox="0 0 20 12"><path xmlns="http://www.w3.org/2000/svg" d="M141.305 814c-.716 0-1.305.58-1.305 1.286v9.428c0 .705.59 1.286 1.305 1.286h12.815c.546 0 1.072-.2 1.473-.566l.019-.017 4.027-4.528-.019.02a1.278 1.278 0 0 0 0-1.818l.02.02-4.028-4.528-.019-.017a2.196 2.196 0 0 0-1.473-.566h-12.815zm0 .857h12.815c.326 0 .639.122.88.337l3.995 4.493.01.01a.418.418 0 0 1 0 .606l-.01.01-3.995 4.492a1.32 1.32 0 0 1-.88.338h-12.815a.426.426 0 0 1-.435-.429v-9.428c0-.243.188-.429.435-.429zm13.914 3.429c-.956 0-1.739.771-1.739 1.714s.783 1.714 1.74 1.714c.956 0 1.739-.771 1.739-1.714s-.783-1.714-1.74-1.714zm0 .857a.857.857 0 1 1 0 1.714.857.857 0 1 1 0-1.714z" transform="translate(-140 -814)"/></symbol><symbol id="lp-word" data-name="lp-word" viewBox="0 0 20 26"><g xmlns="http://www.w3.org/2000/svg" transform="translate(-462 -1489)"><path d="M0 0v26h20V7.58L12.324 0H0zm1.111 1.13h10.556v7.348h7.222V24.87H1.11V1.13zm11.667.892l5.393 5.326h-5.393V2.022zm1.881 9.21c-.492-.02-1.189.282-1.5 1.03-.3.73-.505 1.985-.696 3.213-.098.614-.18 1.208-.247 1.676-.068.47-.124.848-.137.916l-.002.011a.893.893 0 0 1-.202.442.359.359 0 0 1-.302.132c-.316 0-.464-.132-.497-.52 0-.012 0-.023-.002-.034-.041-.287-.523-4.133-.523-4.133a.558.558 0 0 0-.555-.495.561.561 0 0 0-.55.504l-.24 2.194a241.84 241.84 0 0 1-.28 2.449c-.002.01-.002.022-.005.033-.032.386-.18.521-.494.521a.36.36 0 0 1-.302-.13.9.9 0 0 1-.202-.446c-.002-.002-.002-.007-.004-.01-.109-.547-.313-1.35-.521-2.573v-.003c-.104-.585-.263-1-.584-1.282-.319-.283-.785-.296-1.078-.186-.588.219-.894.7-.894.7a.57.57 0 0 0 .09.793.55.55 0 0 0 .782-.093s.267-.263.386-.322c.022.026.13.165.204.59.215 1.26.43 2.116.528 2.602v-.009c.067.376.223.736.492 1.02.267.285.666.48 1.103.48.837 0 1.53-.698 1.601-1.553l-.002.033c.004-.037.03-.282.04-.35.164.746.746 1.35 1.507 1.35.437 0 .836-.194 1.103-.479a1.98 1.98 0 0 0 .492-1.015c.04-.192.08-.51.148-.976.065-.47.15-1.055.243-1.66.189-1.206.456-2.54.625-2.952.163-.391.254-.347.432-.34.178.006.36.1.36.1.27.15.608.05.758-.222a.57.57 0 0 0-.218-.768s-.366-.22-.857-.239z" transform="translate(462 1489)" id="icons8-word"/></g></symbol><symbol id="lp-clock" data-name="lp-clock" viewBox="0 0 14 14"><path xmlns="http://www.w3.org/2000/svg" d="M78 813c-3.858 0-7 3.142-7 7s3.142 7 7 7 7-3.142 7-7-3.142-7-7-7zm0 1.077A5.916 5.916 0 0 1 83.923 820 5.916 5.916 0 0 1 78 825.923 5.916 5.916 0 0 1 72.077 820 5.916 5.916 0 0 1 78 814.077zm-.538 1.077v5.384h3.23v-1.076h-2.154v-4.308h-1.076z" transform="translate(-71 -813)"/></symbol><symbol id="lp-hamburger" data-name="lp-hamburger" viewBox="0 0 21 15"><g xmlns="http://www.w3.org/2000/svg" id="delmål"><g id="MENY-under-1024" transform="translate(-814 -48)"><path d="M0 .2v2.006h20.625V.2H0zm0 6.016v2.005h20.625V6.216H0zm0 6.016v2.005h20.625v-2.005H0z" transform="translate(814 48)" id="icons8-menu-(10)"/></g></g></symbol><symbol id="lp-lyssna" data-name="lp-lyssna" viewBox="0 0 17 16"><g xmlns="http://www.w3.org/2000/svg"><path d="M424.297 316a.602.602 0 0 0-.36.135l-5.903 4.788h-2.82c-.664 0-1.214.558-1.214 1.23v3.693c0 .673.55 1.23 1.214 1.23h2.82l5.903 4.79a.6.6 0 0 0 .642.073.616.616 0 0 0 .344-.555v-14.768a.62.62 0 0 0-.184-.442.602.602 0 0 0-.442-.174zm-.588 1.897v12.206l-4.854-3.937v-4.332l4.854-3.937zm5.464.56a.6.6 0 0 0-.272.07l-2.428 1.23a.618.618 0 1 0-.08 1.08.6.6 0 0 0 .62.021l2.428-1.23a.618.618 0 0 0-.268-1.171zm-13.96 3.697h2.428v3.692h-2.427v-3.692zm11.53 1.23a.605.605 0 0 0-.532.306.623.623 0 0 0 0 .62c.11.192.314.308.533.305h3.64a.605.605 0 0 0 .533-.305.623.623 0 0 0 0-.62.605.605 0 0 0-.532-.305h-3.641zm-.02 3.688a.618.618 0 0 0-.249 1.17l2.427 1.231a.6.6 0 0 0 .62-.021.618.618 0 0 0-.08-1.08l-2.427-1.23a.6.6 0 0 0-.292-.07z" transform="translate(-414 -316)" id="sök"/></g></symbol><symbol id="lp-twitter" data-name="lp-twitter" viewBox="0 0 13 13"><path xmlns="http://www.w3.org/2000/svg" d="M6.5 0C2.92 0 0 2.92 0 6.5S2.92 13 6.5 13 13 10.08 13 6.5 10.08 0 6.5 0zm0 1C9.54 1 12 3.46 12 6.5S9.54 12 6.5 12 1 9.54 1 6.5 3.46 1 6.5 1zm1.61 2.75c-.84 0-1.53.68-1.53 1.53 0 .16.05.26.05.37C5.37 5.59 4.32 4.89 3.59 4c-.16.21-.21.47-.21.74 0 .53.2 1.11.63 1.47-.29-.04-.42-.1-.63-.21 0 .74.47 1.22 1.15 1.38 0 0-.26.05-.42.05-.12 0-.26-.05-.26-.05.21.58.74 1.05 1.42 1.05-.53.37-1.22.57-1.9.57H3c.38.5 1.25.75 2.32.75 2.79 0 4.32-2.32 4.32-4.32v-.21c.26-.21.53-.47.74-.79-.32.16-.58.21-.9.27.32-.21.58-.47.68-.84-.26.15-.57.31-.94.36-.27-.31-.69-.47-1.11-.47z"/></symbol><symbol id="lp-close" data-name="lp-close" viewBox="0 0 16 16"><path xmlns="http://www.w3.org/2000/svg" d="M7.5 1A6.51 6.51 0 0 0 1 7.5 6.51 6.51 0 0 0 7.5 14 6.51 6.51 0 0 0 14 7.5 6.51 6.51 0 0 0 7.5 1zm0 1C10.543 2 13 4.457 13 7.5S10.543 13 7.5 13A5.493 5.493 0 0 1 2 7.5C2 4.457 4.457 2 7.5 2zm-2 2.793l-.707.707.355.352L6.793 7.5 5.148 9.148l-.355.352.707.707.352-.355L7.5 8.207l1.648 1.645.352.355.707-.707-.355-.352L8.207 7.5l1.645-1.648.355-.352-.707-.707-.352.355L7.5 6.793 5.852 5.148z"/></symbol><symbol id="lp-internal-link" data-name="lp-internal-link" viewBox="0 0 50 50"><path xmlns="http://www.w3.org/2000/svg" d="M37 4a8.94 8.94 0 0 0-6.363 2.637l-5 5A8.934 8.934 0 0 0 23 18a8.96 8.96 0 0 0 .889 3.885l1.525-1.528A6.998 6.998 0 0 1 25 18c0-1.87.729-3.626 2.05-4.95l5-5A6.955 6.955 0 0 1 37 6c1.87 0 3.626.729 4.95 2.05A6.95 6.95 0 0 1 44 13c0 1.87-.729 3.626-2.05 4.95l-5 5A6.955 6.955 0 0 1 32 25a6.99 6.99 0 0 1-2.357-.414l-1.528 1.525A8.958 8.958 0 0 0 32 27a8.94 8.94 0 0 0 6.363-2.637l5-5A8.94 8.94 0 0 0 46 13a8.94 8.94 0 0 0-2.637-6.363A8.94 8.94 0 0 0 37 4zm-6.02 13.99a1 1 0 0 0-.687.303l-12 12a1 1 0 1 0 1.414 1.414l12-12a1 1 0 0 0-.727-1.717zM18 23a8.94 8.94 0 0 0-6.363 2.637l-5 5A8.929 8.929 0 0 0 4 37a8.94 8.94 0 0 0 2.637 6.363A8.94 8.94 0 0 0 13 46a8.94 8.94 0 0 0 6.363-2.637l5-5A8.94 8.94 0 0 0 27 32a8.958 8.958 0 0 0-.889-3.885l-1.525 1.528c.267.748.414 1.54.414 2.357 0 1.87-.729 3.626-2.05 4.95l-5 5A6.955 6.955 0 0 1 13 44a6.955 6.955 0 0 1-4.95-2.05A6.95 6.95 0 0 1 6 37c0-1.87.729-3.626 2.05-4.95l5-5A6.955 6.955 0 0 1 18 25c.817 0 1.61.147 2.357.414l1.528-1.525A8.958 8.958 0 0 0 18 23z"/></symbol><symbol id="lp-chevron-right" data-name="lp-chevron-right" viewBox="0 0 30 30"><path xmlns="http://www.w3.org/2000/svg" d="M12 27h-2a1.002 1.002 0 0 1-.774-1.634L17.708 15 9.226 4.633A1.001 1.001 0 0 1 10 3h2a1 1 0 0 1 .774.367l9 11c.301.369.301.898 0 1.267l-9 11c-.19.231-.474.366-.774.366z"/></symbol><symbol id="lp-etjanst" data-name="lp-etjanst" viewBox="0 0 16 16"><path xmlns="http://www.w3.org/2000/svg" d="M3.5 2C2.676 2 2 2.676 2 3.5v6.863l-.836 1.453-.008.012C.668 12.808 1.406 14 2.5 14h11c1.094 0 1.832-1.191 1.344-2.172l-.012-.012L14 10.363V3.5c0-.824-.676-1.5-1.5-1.5zm0 1h9c.281 0 .5.219.5.5V10H3V3.5c0-.281.219-.5.5-.5zM5 4v1h6V4zm0 2v1h4V6zm0 2v1h6V8zm-2.21 3h10.42l.74 1.281a.486.486 0 0 1-.45.719h-11c-.39 0-.621-.371-.445-.719v-.004z"/></symbol><symbol id="lp-blankett" data-name="lp-blankett" viewBox="0 0 16 16"><path xmlns="http://www.w3.org/2000/svg" d="M4.5 2C3.676 2 3 2.676 3 3.5v9c0 .824.676 1.5 1.5 1.5h7c.824 0 1.5-.676 1.5-1.5V5.293L9.707 2zm0 1H9v3h3v6.5c0 .281-.219.5-.5.5h-7a.494.494 0 0 1-.5-.5v-9c0-.281.219-.5.5-.5zm5.5.707L11.293 5H10zM6 8v1h4V8zm0 2v1h3v-1z"/></symbol><symbol id="lp-translate" data-name="lp-translate" viewBox="0 0 24 24"><path xmlns="http://www.w3.org/2000/svg" d="M20.82 9.613l-.054-.078.047-.152.128.023.118.067.015-.012-.039.105-.105.051zm.664.707l-.047-.168-1.019-.66-.246-.015-.223.242-.11.3.09.165zm-15.66-.797l-.117.422.383-.433.031-.133-.164-.066zm.23-.683v.023l-.652.309.825-.164zm.497.82l.082-.062.07-.164-.012.02.055-.192-.152-.024-.121.032-.078.082-.04.14.106.133zm13.062-2.945l-.117-.063-.523-.035-.22-.183.267-.98-1.301 2.105-.344.253.637.243zm1.227 5.84l1.297 2.054-1.047-1.945zM24 12c0 6.629-5.371 12-12 12-6.625 0-12-5.371-12-12S5.375 0 12 0c6.629 0 12 5.371 12 12zm-8.73-4.848l.003 1.024.207.52.493-.114.027-.336zM16 5.324l-.176-.07-.37.082-.356-.078-.016.441.04.098.48.047.304-.242zm-7.113-3.18l.597-.023 1.168-.762c-.375.047-.738.11-1.097.196l-.211.28zm-.746.348l.394.317.504.066.316-.3-.19-.028-.778-.445-.227-.043zm-1.032-.047l.043.059.223-.016.238-.101.13-.16-.048-.067c-.199.086-.39.188-.586.285zM6.535 3.66l.297.043.211-.246.059-.289-.16-.082-.403.445zm-2.148.824l.527.301.777-.36.606-.648.016-.586-.524.102-.055-.02c-.367.262-.714.551-1.046.86l.054.058-.316.22zm-2.953 8.48l-.235-.398c0 .036.004.07.008.106l.219.488zm10.656 4.661l-.543-.402-1.55-.461-.907-1.188-1.121-.426-2.63-.09-.796-1.343-.211-.027-.652.316-.239-.254-.043-.367.079-.305.414-.558.488-.274 1.223.227.18.515.374.086-.004-.781 1.024-1.488 2.258-1.262-.329-.04-.582-.433 1.485-.422.055.133-.024.125-.09.121-.164.114.117.16.364.015.293-.109-.973-2.352-.137.016-1.187-.57-.266.258-.691 1.77-.332-.302-.793-.363-.489-.555.575-.867 1.757-1.36.262-.734.809.512.129.281-.852.696.848.531.183-.098.09.004.36-.566-.082-.094.496-.543-.38-.656-.984-.836.52-.094-.027-.137-.286-.062-.82.46.266-.433-.551.176-.098 1.348-.437.297-.309-.29.805-1.503-.063-.063-.074-.031h-.086l-.094.035-1.28 1.785.027-.11.128-.245-.046-.102-.22.13-1.843.378-.336-.184a10.785 10.785 0 0 0-2.902 7.438c0 .035.008.07.008.105l.004-.015.265.097.977 1.657 2.933 1.293.403.445.007.59-.367.875-.02.476 1.274 2.461.04 1.367a10.87 10.87 0 0 0 2.183.942l1.332-1.707 1.183-.871zM7.656 5.598l-.101-.145-.098-.023-.367.465.062.07h.453l.141-.09zm4.504.968l3.05-2.636.716-1.918a10.743 10.743 0 0 0-4.004-.742c-.188 0-.367.02-.555.03l-.14.079-.286.41-.058.277.113.204.781.101.23 1.516-.39.914-.094.668.247.71zm10.219 8.329l.082-.051c.238-.903.371-1.852.363-2.828-.004-.7-.082-1.375-.21-2.036l-.06-.117.024-.078a10.69 10.69 0 0 0-1.933-4.187l-.067.027-.394-.402.144-.043c-.34-.407-.71-.782-1.105-1.133l-.332-.024-.602.258-1.582 2.149.074.277.742.57v.293l-2.085 1.54.015.199.168.285.059.254-.907.359-.07.465.07.57-1.382 2.719-.063 1.203 1.031.61 1.704-.004.769.218 1.461 4.903a10.822 10.822 0 0 0 4.137-5.934zm-1.457-3.72l-1.621-.437-.164-.199.035.473-.043.035-1.27-1.324v.007l-.207.051-.03-.05.062.257.5.364.035.27-.098.163-.07.05-.09.036-.48-.75-.715.004-1.496 1.11 1.96-.075.887.805.426.148 2.352-.472z"/></symbol><symbol id="lp-tecken" data-name="lp-tecken" viewBox="0 0 53 57"><g xmlns="http://www.w3.org/2000/svg" id="Mockup"><g id="Desktop-HD" transform="translate(-376 -239)"><g id="tecken" transform="translate(376 166)"><g id="Group-3" transform="translate(0 73)"><path d="M1.86 5.267c-.95 1.644-.545 3.42.453 4.591-.65.343-1.267.82-1.721 1.605-.6 1.038-.792 2.231-.352 3.297.41.995 1.245 1.794 2.424 2.514l.258.153.515.297c-.566.323-1.118.75-1.515 1.435-.855 1.482-.635 3 .04 3.993.624.918 1.497 1.503 2.136 1.881l.155.09 6.692 3.864 3.317-.394-9.01-5.202c-.502-.29-1.127-.71-1.51-1.17l-.131-.174c-.355-.526-.501-.944.043-1.888.545-.944.98-1.026 1.613-.98.563.04 1.247.342 1.789.638l.197.11 10.392 6 1-1.732-14.722-8.5c-1.11-.64-1.66-1.228-1.846-1.679-.186-.45-.153-.859.247-1.553.459-.795.88-1.016 1.31-1.083.378-.059.829.05 1.246.256l.176.095 13.857 8 1-1.732-15.59-9c-.756-.438-1.401-1.572-.731-2.732.64-1.108 1.857-1.167 2.625-.789l.107.057 16.454 9.5 1-1.732-12.99-7.5c-.636-.368-.893-.805-.986-1.29a2.203 2.203 0 0 1 .254-1.442c.436-.756 1.403-1.39 2.535-.933l.163.073L33.7 14.305a1 1 0 1 0 1.497-1.093l-.038-.122-2.684-7.287a.69.69 0 0 1-.012-.043c-.368-1.277.364-2.546 1.757-2.919a.69.69 0 0 0 .043-.012c1.289-.396 2.584.338 2.96 1.747l.025.051.026.05 7.113 17.493.01.043c.18.422.315.851.406 1.284l2.119 1.495a8.631 8.631 0 0 0-.56-3.219l-.14-.347L39.19 4.05l-.05-.1c-.67-2.27-2.962-3.64-5.215-3.088l-.218.06-.027-.016c-2.392.666-3.853 3.133-3.13 5.482l.019.03.02.028 1.759 4.768L13.7.447c-2.18-1.109-4.438 0-5.376 1.624-.305.53-.446 1.15-.48 1.788L7.84 4.1l-.515-.297C5.66 2.843 3.09 3.136 1.86 5.267m4.477 30.89c-.16-.9.213-2.074 1.514-2.394l23.82-4.2c.426-.059.764-.389.845-.812a1.006 1.006 0 0 0-.508-1.056l-6.741-3.857-.036-.026c-1.103-.74-1.357-2.184-.53-3.365l.025-.036c.733-1.133 2.196-1.403 3.39-.566.036.017.07.031.104.045l16.693 8.83.036.025c1.952.988 3.218 2.775 3.602 4.95l1.405 7.97c.67 3.797-1.881 7.44-5.678 8.11l-28.56 5.035c-.642.114-1.511.2-2.121.025-.61-.174-.991-.4-1.18-1.474-.19-1.073.09-1.416.605-1.788.513-.372 1.359-.589 2.002-.702l11.818-2.084-.347-1.97L9.753 49.77c-1.262.223-2.06.125-2.493-.099-.432-.226-.67-.56-.81-1.349-.158-.904.022-1.345.309-1.673.287-.328.788-.55 1.314-.644l15.757-2.779-.347-1.969-17.727 3.126c-.861.151-2.084-.303-2.316-1.623-.233-1.32.76-2.164 1.622-2.317l18.71-3.3-.346-1.968-14.772 2.604c-.723.127-1.201-.042-1.586-.355a2.202 2.202 0 0 1-.731-1.267m1.105-4.352c-2.382.551-3.4 2.852-3.075 4.7.119.677.473 1.308.932 1.866l-.585.103c-1.892.334-3.671 2.21-3.244 4.633.329 1.87 1.78 2.971 3.298 3.227-.277.68-.444 1.442-.286 2.335.208 1.181.827 2.22 1.849 2.752 1.023.534 2.273.583 3.769.32l.585-.104c-.225.611-.375 1.292-.238 2.073.297 1.684 1.44 2.705 2.598 3.032 1.156.328 2.286.168 3.02.038l28.56-5.035c4.87-.859 8.159-5.556 7.3-10.427l-1.404-7.97c-.486-2.75-2.17-5.107-4.68-6.378l-16.56-8.789-.101-.046c-2.035-1.35-4.78-.855-6.11 1.173-.005.008-.023-.004-.03.005-1.403 2.048-.936 4.877 1.128 6.211a.567.567 0 0 0 .067.02l4.41 2.522-21.141 3.728-.062.011" id="Fill-1"/></g></g></g></g></symbol></defs></svg>